# xmcd
#
# Track frame offsets: 
#        150
#        34162
#        64350
#        96632
#        128289
#        162002
#        193255
#        231165
#        263118
#        293879
#        325345
#
# Disc length: 4757 seconds
#
# Revision: 3
# Processed by: cddbd v1.5.2PL0 Copyright (c) Steve Scherf et al.
# Submitted via: ExactAudioCopy v0.95a5
#
DISCID=a112930b
DTITLE=Various Artist - Gary D. Presents D.Trance 31 [CD2]
DYEAR=2005
DGENRE=Trance
TTITLE0=Rocketeers - Up To Find My Mind (Lagoon Remix) 
TTITLE1=Cosmic Culture - Oceans (Original Mix)  
TTITLE2=Gary D. - Papillion (Morning Glow Mix) 
TTITLE3=DJ Subsonic and DJ Saddock - You Are Ready (Wavetraxx Mix)  
TTITLE4=Marc Et Claude - Free (Club Mix)
TTITLE5=Norman Paris - Ahead (Teknoon Remix)  
TTITLE6=Tomonari and Tommy Pi - C Sharp 2005 (Alphazone Remix) 
TTITLE7=Arcadian Daze - Prelude (Gentleman Mix)  
TTITLE8=Daniel van de Kroon - Feel The Generation  
TTITLE9=A.C. - Estatica (Original Mix) 
TTITLE10=Wavepushers - Situation 2005 (2005 Mixture) 
EXTD=YEAR: 2005
EXTT0=
EXTT1=
EXTT2=
EXTT3=
EXTT4=
EXTT5=
EXTT6=
EXTT7=
EXTT8=
EXTT9=
EXTT10=
PLAYORDER=
